<svg xmlns="http://www.w3.org/2000/svg" viewBox="0 0 512 512">
  <defs>
    <linearGradient id="bg" x1="0" y1="0" x2="1" y2="1">
      <stop offset="0%" stop-color="#F4C2C2"/>
      <stop offset="30%" stop-color="#FBE0C8"/>
      <stop offset="60%" stop-color="#FFFBF7"/>
      <stop offset="100%" stop-color="#CDC0E0"/>
    </linearGradient>
  </defs>
  <rect width="512" height="512" rx="100" fill="url(#bg)"/>
  <g transform="translate(256,268) scale(0.72)">
    <rect x="-140" y="-170" width="280" height="340" rx="12" fill="#FFF" opacity="0.92"/>
    <rect x="-140" y="-170" width="16" height="340" rx="4" fill="#FAD4C0" opacity="0.8"/>
    <rect x="132" y="-162" width="8" height="324" rx="2" fill="#FFFBF7" opacity="0.5"/>
    <g stroke="#E8E0D5" stroke-width="2" opacity="0.45">
      <line x1="-100" y1="-120" x2="110" y2="-120"/>
      <line x1="-100" y1="-80" x2="110" y2="-80"/>
      <line x1="-100" y1="-40" x2="110" y2="-40"/>
      <line x1="-100" y1="0" x2="110" y2="0"/>
      <line x1="-100" y1="40" x2="110" y2="40"/>
      <line x1="-100" y1="80" x2="110" y2="80"/>
      <line x1="-100" y1="120" x2="80" y2="120"/>
    </g>
    <path d="M-20,-170 L-20,-120 L0,-130 L20,-120 L20,-170" fill="#F4C2C2" opacity="0.65"/>
    <g transform="rotate(-30,100,-50)">
      <rect x="110" y="-160" width="9" height="115" rx="3" fill="#FBE0C8" opacity="0.7"/>
      <polygon points="110,-45 114.5,-25 119,-45" fill="#FAD4C0" opacity="0.7"/>
    </g>
  </g>
</svg>
